<svg xmlns="http://www.w3.org/2000/svg" xmlns:xlink="http://www.w3.org/1999/xlink" viewBox="0,0,256,256" width="200px" height="200px" fill-rule="nonzero"><defs><linearGradient x1="26.425" y1="14" x2="36.773" y2="14" gradientUnits="userSpaceOnUse" id="color-1"><stop offset="0" stop-color="#437fff"></stop><stop offset="1" stop-color="#000000"></stop></linearGradient><linearGradient x1="36.444" y1="33" x2="2.343" y2="33" gradientUnits="userSpaceOnUse" id="color-2"><stop offset="0" stop-color="#000000"></stop><stop offset="0.266" stop-color="#437fff"></stop><stop offset="0.678" stop-color="#437fff"></stop><stop offset="1" stop-color="#000000"></stop></linearGradient><linearGradient x1="37.905" y1="7" x2="1.579" y2="7" gradientUnits="userSpaceOnUse" id="color-3"><stop offset="0" stop-color="#000000"></stop><stop offset="0.3" stop-color="#437fff"></stop><stop offset="0.669" stop-color="#437fff"></stop><stop offset="1" stop-color="#000000"></stop></linearGradient></defs><g fill="none" fill-rule="nonzero" stroke="none" stroke-width="1" stroke-linecap="butt" stroke-linejoin="miter" stroke-miterlimit="10" stroke-dasharray="" stroke-dashoffset="0" font-family="none" font-weight="none" font-size="none" text-anchor="none" style="mix-blend-mode: normal"><g transform="scale(6.4,6.4)"><path d="M31,16h-11v-4h15z" fill="url(#color-1)"></path><path d="M23.445,18c0.344,0.59 0.555,1.268 0.555,2c0,2.209 -1.791,4 -4,4c-2.209,0 -4,-1.791 -4,-4c0,-2.209 1.791,-4 4,-4h6.921c-1.384,-2.389 -3.962,-4 -6.921,-4c-4.418,0 -8,3.582 -8,8c0,4.418 3.582,8 8,8c4.418,0 8,-3.582 8,-8c0,-0.692 -0.097,-1.36 -0.262,-2z" fill="#437fff"></path><path d="M31,35h-22l-3.074,-4h28.73z" fill="url(#color-2)"></path><path d="M31,5h-22l-3.074,4h28z" fill="url(#color-3)"></path><path d="M9,5v30l-4,-4v-22.018z" fill="#437fff"></path><path d="M35,8.982l-4,-3.982v11l4,-4z" fill="#437fff"></path><path d="M35,15l-4,3.982v16l4,-4z" fill="#437fff"></path></g></g></svg>